<?xml version="1.0" encoding="utf-8" ?><svg xmlns="http://www.w3.org/2000/svg" xmlns:xlink="http://www.w3.org/1999/xlink" width="563" height="443" viewBox="0 0 563 443"><path d="M226.035 150.698C210.093 124.489 203.329 95.6589 202.037 65.2076C201.319 49.0318 205.42 51.1551 217.879 54.5977C242.434 61.382 266.268 72.2673 285.796 88.8518C287.65 90.4264 292.678 95.2842 294.52 95.7617C298.377 96.7617 310.942 96.2832 314.816 96.3736C315.367 96.9813 316.054 97.8036 316.552 98.4558C324.672 109.097 332.567 119.979 340.682 130.626C346.729 138.49 352.674 146.43 358.518 154.446C360.004 156.487 365.936 163.589 365.696 165.557C363.153 166.737 341.416 165.506 337.17 165.945L336.761 165.992C335.776 167.403 334.336 168.615 333.036 169.756C333.716 170.982 338.451 174.705 339.844 175.897C352.718 176.808 365.37 178.747 378.153 179.943C387.203 180.79 396.352 181.335 405.415 182.617C407.621 182.929 412.048 183.134 413.891 183.704C429.956 184.905 446.498 186.749 462.607 188.199L482.851 190.002C486.862 190.372 494.171 190.623 497.71 192.005C498.616 193.722 495.807 203.345 495.286 205.6C492.461 217.819 489.264 229.978 486.213 242.143C485.791 243.825 483.727 250.947 483.643 251.993C483.423 254.107 482.335 257.901 481.784 260.072C480.668 264.468 479.575 268.87 478.506 273.278L462.003 341.549L457.756 359.18C457.166 361.597 455.491 366.398 456.101 368.507C456.645 369.07 456.821 369.214 457.444 369.697C458.146 371.437 457.192 373.724 456.662 375.619L261.297 406.129L211.376 413.931C204.382 415.062 190.969 417.511 184.053 417.803C181.093 417.927 168.416 411.198 164.781 409.594C149.499 402.941 134.299 396.1 119.185 389.073C109.317 384.491 99.3832 379.539 89.544 374.885L62.9973 362.147C59.6282 360.499 56.1483 358.918 52.8992 357.071C52.443 356.812 52.2089 356.387 52.189 355.868C53.2751 355.362 54.8454 355.05 56.042 354.757C57.8157 354.204 59.7429 353.792 61.5677 353.436C71.83 351.434 82.2089 349.443 92.4506 347.379L175.186 331.537L200.578 326.844C208.082 325.5 214.417 324.558 221.816 322.701C229.809 293.786 237.304 264.735 244.297 235.561C244.798 233.501 245.815 230.866 246.154 228.888C247.396 221.643 250.491 214.355 251.597 207.168C250.659 204.766 224.829 175.532 221.124 171.726C222.552 164.669 224.19 157.657 226.035 150.698ZM459.443 298.259C463.078 284.845 465.871 271.168 469.105 257.656C469.964 254.066 471.051 250.528 471.951 246.946L480.323 213.464C481.242 209.835 482.885 204.865 480.746 201.442C477.852 196.812 473.248 197.1 468.441 196.586C465.813 196.305 463.173 196.039 460.541 195.766C446.432 194.303 432.314 192.918 418.19 191.61C414.073 191.2 404.307 190.632 400.757 189.858L400.326 189.76C398.46 188.67 394.245 189.222 393.332 188.173C392.186 186.742 389.624 186.498 387.929 186.264C390.436 185.891 391.748 185.52 394.026 184.452C397.096 183.726 399.808 184.139 402.813 183.426C401.144 183.014 396.45 182.616 394.439 182.382C393.297 182.233 392.604 182.255 391.473 182.273C386.286 181.58 383.152 181.422 377.981 181.076C373.736 180.532 369.55 180.275 365.286 179.994C364.713 179.797 363.481 179.735 362.819 179.672C359.977 179.482 353.565 178.466 351.318 178.534C348.156 178.208 343.9 177.961 340.926 177.327C342.164 178.092 343.801 178.945 344.624 180.075C344.934 181.91 343.637 182.504 342.289 183.575L342.429 184.456C341.972 184.504 341.702 184.527 341.251 184.61C338.96 186.153 336.712 187.959 334.569 189.72C323.687 198.657 312.627 207.371 301.744 216.304C300.846 217.041 299.694 217.873 298.673 218.402C297.55 216.395 291.603 205.354 290.459 204.733C290.65 204.65 284.527 208.312 284.603 208.141C283.017 211.702 279.598 234.519 277.682 236.186C276.227 235.376 263.845 220.911 262.048 218.823C258.157 236.665 253.364 254.313 249.241 272.108C246.238 285.07 242.252 297.879 239.265 310.845C238.994 312.021 240.005 314.419 240.637 315.458C242.53 318.448 246.124 318.928 249.289 319.607C252.216 320.235 255.15 320.831 258.08 321.436L285.345 326.96L324.872 335.049C339.513 338.157 354.125 341.21 368.806 344.305C389.075 348.578 409.534 352.668 429.811 356.964C433.758 357.8 438.481 359.435 442.059 357.005C442.877 356.438 444.795 354.483 445.069 353.567C449.438 338.926 452.596 323.822 456.529 309.043C457.369 305.887 458.198 300.93 459.443 298.259ZM319.273 129.574C317.947 127.489 316.398 125.287 315.001 123.229C292.659 92.7882 275.985 81.8854 241.89 66.7724L221.714 83.0002C218.109 85.9093 213.18 89.6623 209.814 92.6918C215.816 127.949 229.871 156.753 255.192 182.143C260.929 187.895 277.299 204.896 284.759 206.552C289.066 205.368 290.847 202.949 294.376 200.257C295.744 198.953 299.248 196.413 300.895 195.139C302.38 192.884 325.551 175.362 329.104 172.658C330.391 171.659 331.702 170.691 333.036 169.756C334.336 168.615 335.776 167.403 336.761 165.992C337.028 164.31 337.254 162.958 336.989 161.27C334.391 156.428 332.282 151.348 329.416 146.154C326.259 140.434 322.243 134.936 319.273 129.574Z"/><path d="M315.883 214.636C333.878 222.234 348.034 238.913 357.506 255.527C359.658 259.509 361.497 263.653 363.009 267.919C368.309 282.697 369.894 298.552 367.622 314.086C365.969 309.999 365.146 304.716 364.059 300.367C355.713 266.984 338.914 240.021 315.883 214.636Z"/><path d="M331.264 195.311C331.631 195.398 332.285 195.589 332.536 195.902C338.928 203.896 346.559 212.44 354.353 219.096C363.922 227.188 374.512 233.986 385.851 239.319C391.391 241.913 397.055 243.965 402.546 246.659C399.177 247.468 386.84 245.111 383.195 244.103C380.976 243.49 375.129 241.303 372.956 240.304C353.607 231.481 338.593 215.278 331.264 195.311Z"/><path d="M456.478 255.851C460.773 255.261 465.105 256.697 469.058 258.083C467.79 257.988 466.521 257.914 465.252 257.859C456.777 257.552 447.083 261.328 440.978 267.148C434.904 272.937 432.036 281.344 431.733 289.576C432.487 289.744 435.644 288.346 436.901 288.189C441.366 287.629 444.521 287.966 448.473 289.872C441.592 290.185 434.976 291.701 430.12 296.958C424.315 302.446 423.947 310.352 423.943 317.755C418.406 307.099 420.447 299.176 429.065 291.222C429.038 289.927 428.91 288.512 428.812 287.218C427.504 270.087 439.327 256.823 456.478 255.851Z"/><path d="M379.648 330.855C376.966 324.297 377.966 313.518 380.18 307.197C384.562 294.688 393.339 287.502 405.708 283.52C409.05 282.444 426.003 281.408 427.345 284.832C426.67 284.908 426.078 284.681 425.394 284.632C415.135 283.897 404.372 287.282 396.392 293.546C388.94 299.424 383.825 307.766 381.966 317.075C381.536 319.337 381.397 323.1 381.099 325.62C380.422 327.19 380.919 329.375 379.648 330.855Z"/><path d="M345.417 339.12C348.25 325.738 364.359 320.36 375.244 327.831C377.075 329.088 378.228 330.514 379.696 332.116L379.941 332.69C380.58 332.913 381.649 333.209 382.125 333.627C382.048 334.927 382.709 337.212 383.037 338.532C381.528 337.405 380.1 335.872 378.621 334.779C371.104 329.221 364.172 327.527 355.432 331.264C349.645 333.739 349.77 335.276 345.417 339.12Z"/><path fill="#313033" fill-opacity="0.039215688" d="M357.506 255.527L357.852 255.301C358.353 254.966 358.439 254.847 358.833 254.401C360.776 257.169 362.958 262.56 364.11 265.962C363.234 266.629 362.925 266.653 363.009 267.919C361.497 263.653 359.658 259.509 357.506 255.527Z"/><path d="M379.648 330.855C380.919 329.375 380.422 327.19 381.099 325.62C381.648 328.5 381.247 330.509 382.125 333.627C381.649 333.209 380.58 332.913 379.941 332.69L379.696 332.116C379.718 331.87 379.662 331.142 379.648 330.855Z"/><path fill="#09080D" fill-opacity="0.95686275" d="M341.251 184.61C341.702 184.527 341.972 184.504 342.429 184.456L342.289 183.575C343.294 184.213 351.483 184.528 353.381 184.725C356.065 185.005 358.471 185.265 361.172 185.353C364.73 185.947 390.536 188.655 393.332 188.173C394.245 189.222 398.46 188.67 400.326 189.76C398.089 189.875 391.103 189.052 388.566 188.827L362.704 186.461C359.178 186.145 343.704 185.446 341.251 184.61Z"/><path fill="#ECEBEB" d="M56.042 354.757C57.6959 354.788 59.1517 354.55 60.7849 354.339C71.0344 353.013 81.1946 351.206 91.4084 349.627C123.876 344.448 156.312 339.075 188.715 333.509L209.408 329.891C211.167 329.57 220.631 327.757 221.929 327.845C227.232 328.204 235.484 330.268 241.005 331.341L293.456 341.694C345.057 351.779 396.755 361.361 448.542 370.439C444.52 371.169 440.507 371.626 436.473 372.224C406.785 376.623 376.967 379.929 347.234 384.018C292.719 391.567 238.285 399.695 183.943 408.4C161.218 398.982 138.421 389.738 115.555 380.667C102.56 375.528 89.5322 370.473 76.4719 365.503C72.7397 364.091 53.9833 357.483 52.189 355.868C53.2751 355.362 54.8454 355.05 56.042 354.757Z"/><path fill="#313033" d="M228.923 334.782C230.97 334.73 239.546 336.803 242.056 337.309L278.183 344.509L352.271 359.279L370.691 362.918C373.995 363.566 377.415 364.077 380.639 365.001C374.746 365.466 369.17 366.762 363.36 367.659C343.596 370.709 323.67 373.551 303.937 376.722L279.893 380.481C273.514 381.51 267.623 382.627 261.145 383.404C253.44 384.431 206.656 392.646 203.964 391.803C198.814 390.189 193.798 387.679 188.837 385.544L162.625 374.301L134.262 362.114C129.467 360.074 121.798 357.11 117.467 354.743C122.325 353.532 128.546 352.794 133.592 351.871L173.853 344.675L214.531 337.409C219.167 336.62 224.349 335.285 228.923 334.782Z"/><path fill="#9D9C9C" d="M228.772 335.584C233.294 335.564 238.009 337.497 242.394 338.162C248.834 339.14 255.044 340.746 261.389 342.002L343.97 358.217L362.858 361.955C367.644 362.926 370.723 363.837 375.704 364.488C372.006 365.243 367.325 366.429 363.629 366.825C353.733 367.883 344.121 369.995 334.269 371.233C332.333 371.476 330.419 371.729 328.509 372.043L281.714 379.33C273.559 380.589 266.955 381.899 258.515 382.924C250.225 384.409 242.245 385.557 233.907 386.779C224.536 388.152 214.178 390.441 204.711 391.026C203.024 391.131 188.367 384.538 185.983 383.512L143.244 365.137C136.399 362.189 125.945 357.276 119.185 355.069C123.639 354.217 128.291 353.7 132.777 352.875L193.168 342.025L215.123 338.028C219.23 337.241 224.709 335.925 228.772 335.584Z"/><path fill="#AAA9A8" d="M200.191 372.39C201.532 372.822 203.258 375.748 203.402 377.107C201.517 376.693 199.826 374.432 200.191 372.39Z"/><path fill="#97D4FB" d="M241.89 66.7724C275.985 81.8854 292.659 92.7882 315.001 123.229C316.398 125.287 317.947 127.489 319.273 129.574C322.243 134.936 326.259 140.434 329.416 146.154C332.282 151.348 334.391 156.428 336.989 161.27C337.254 162.958 337.028 164.31 336.761 165.992C335.776 167.403 334.336 168.615 333.036 169.756C331.702 170.691 330.391 171.659 329.104 172.658C325.551 175.362 302.38 192.884 300.895 195.139C299.248 196.413 295.744 198.953 294.376 200.257C290.847 202.949 289.066 205.368 284.759 206.552C277.299 204.896 260.929 187.895 255.192 182.143C229.871 156.753 215.816 127.949 209.814 92.6918C213.18 89.6623 218.109 85.9093 221.714 83.0002L241.89 66.7724ZM256.675 133.078C265.988 132.083 272.714 123.699 271.668 114.389C270.621 105.079 262.202 98.3977 252.901 99.4969C243.673 100.587 237.059 108.928 238.097 118.165C239.135 127.401 247.436 134.064 256.675 133.078ZM291.258 177.262C300.564 176.806 307.74 168.891 307.285 159.582C306.831 150.273 298.919 143.095 289.613 143.548C280.305 144.001 273.127 151.917 273.582 161.228C274.036 170.538 281.95 177.717 291.258 177.262Z"/><path d="M251.946 94.7359C263.777 93.1171 274.69 101.372 276.356 113.199C278.022 125.027 269.814 135.977 257.996 137.691C246.111 139.415 235.089 131.148 233.413 119.252C231.737 107.356 240.047 96.364 251.946 94.7359ZM256.675 133.078C265.988 132.083 272.714 123.699 271.668 114.389C270.621 105.079 262.202 98.3977 252.901 99.4969C243.673 100.587 237.059 108.928 238.097 118.165C239.135 127.401 247.436 134.064 256.675 133.078Z"/><path d="M289.263 138.709C301.189 138.043 311.405 147.154 312.106 159.081C312.807 171.008 303.729 181.254 291.807 181.991C279.836 182.73 269.541 173.603 268.837 161.626C268.133 149.649 277.288 139.378 289.263 138.709ZM291.258 177.262C300.564 176.806 307.74 168.891 307.285 159.582C306.831 150.273 298.919 143.095 289.613 143.548C280.305 144.001 273.127 151.917 273.582 161.228C274.036 170.538 281.95 177.717 291.258 177.262Z"/><path fill="#ECEBEB" d="M402.813 183.426C405.513 182.826 411.045 183.68 413.891 183.704C429.956 184.905 446.498 186.749 462.607 188.199L482.851 190.002C486.862 190.372 494.171 190.623 497.71 192.005C498.616 193.722 495.807 203.345 495.286 205.6C492.461 217.819 489.264 229.978 486.213 242.143C485.791 243.825 483.727 250.947 483.643 251.993C482.65 254.275 480.871 261.486 480.213 264.135L475.447 283.142L460.48 341.003C458.072 350.294 455.633 360.938 452.942 370.033L314.079 340.65L255.893 328.598C246.668 326.715 235.972 324.85 226.884 322.713C234.022 296.46 240.707 270.086 246.936 243.603L252.279 221.412C253.055 218.217 254.449 213.303 254.978 210.217C256.659 212.411 258.723 214.667 260.566 216.766L244.233 282.022C242.695 287.921 241.113 293.809 239.486 299.684C238.733 302.46 237.294 307.436 236.948 310.215C236.66 312.402 237.146 314.622 238.322 316.489C240.44 319.913 243.348 320.842 247.07 321.672C251.714 322.708 256.365 323.47 261.015 324.425C274.567 327.254 288.137 329.994 301.726 332.643L376.751 347.663C388.653 349.996 400.972 352.304 412.822 354.781C418.443 356.006 424.085 357.133 429.746 358.161C431.519 358.491 435.012 359.286 436.652 359.426C438.574 359.592 440.499 359.133 442.138 358.116C443.43 357.303 445.43 355.544 445.941 354.143C447.467 349.958 448.367 344.765 449.469 340.424C452.7 327.7 455.6 314.925 458.79 302.192C459.065 301.093 459.35 299.373 459.443 298.259C463.078 284.845 465.871 271.168 469.105 257.656C469.964 254.066 471.051 250.528 471.951 246.946L480.323 213.464C481.242 209.835 482.885 204.865 480.746 201.442C477.852 196.812 473.248 197.1 468.441 196.586C465.813 196.305 463.173 196.039 460.541 195.766C446.432 194.303 432.314 192.918 418.19 191.61C414.073 191.2 404.307 190.632 400.757 189.858L400.326 189.76C398.46 188.67 394.245 189.222 393.332 188.173C392.186 186.742 389.624 186.498 387.929 186.264C390.436 185.891 391.748 185.52 394.026 184.452C397.096 183.726 399.808 184.139 402.813 183.426Z"/><path fill="#347DCF" d="M298.502 101C302.668 101 308.129 100.788 312.186 100.952C317.136 106.742 323.638 116.067 328.457 122.499C337.994 135.228 347.906 148.083 357.26 160.908C351.084 160.982 343.01 160.848 336.989 161.27C334.391 156.428 332.282 151.348 329.416 146.154C326.259 140.434 322.243 134.936 319.273 129.574C317.947 127.489 316.398 125.287 315.001 123.229L315.194 122.224C309.141 114.684 305.457 108.698 298.502 101Z"/><path fill="#0D4F79" d="M315.194 122.224C316.764 124.293 318.566 126.806 319.744 129.117L319.684 129.518L319.273 129.574C317.947 127.489 316.398 125.287 315.001 123.229L315.194 122.224Z"/><path fill="#347DCF" d="M300.895 195.139C302.38 192.884 325.551 175.362 329.104 172.658C330.552 174.779 335.848 178.739 337.939 180.786C334.746 183.627 331.213 186.174 327.917 188.901C318.751 196.486 309.282 203.759 300.157 211.387C299.284 209.806 294.914 202.16 294.579 201.087L294.376 200.257C295.744 198.953 299.248 196.413 300.895 195.139Z"/><path fill="#062438" d="M300.895 195.139L300.977 195.567C299.506 197.18 296.372 199.568 294.579 201.087L294.376 200.257C295.744 198.953 299.248 196.413 300.895 195.139Z"/><path fill="#347DCF" d="M229.507 156.284C229.523 156.293 242.192 171.849 244.224 173.938C251.044 180.947 257.351 187.542 264.935 194.04C269.514 197.963 276.106 202.586 279.959 206.81C278.807 212.858 277.196 219.433 275.797 225.471L275.509 226.079L275.086 226.221C274.155 225.663 265.581 215.42 264.417 214.083L241.069 187.087C236.165 181.43 231.098 175.835 226.321 170.076C227.44 165.492 228.502 160.894 229.507 156.284Z"/><path fill="#347DCF" d="M108.063 37.6389C121.814 35.4782 134.699 44.9153 136.793 58.6806C138.887 72.4459 129.39 85.2892 115.619 87.3169C101.942 89.3307 89.2086 79.9101 87.1293 66.2387C85.0499 52.5672 94.4061 39.7849 108.063 37.6389Z"/><path fill="#347DCF" d="M508.614 371.428C521.421 369.419 533.431 378.177 535.436 390.989C537.441 403.8 528.683 415.811 515.875 417.814C503.071 419.816 491.069 411.059 489.064 398.252C487.059 385.445 495.811 373.437 508.614 371.428Z"/><path d="M106.706 235.288C109.699 230.991 114.402 228.127 119.501 227.204C133.828 224.608 144.71 231.997 147.416 246.041C153.178 246.667 156.267 246.743 161.316 250.561C165.629 253.823 168.096 258.369 168.799 263.705L168.145 263.732C166.257 257.636 164.43 253.934 158.882 250.581C154.924 248.19 149.315 247.571 145.934 248.406C145.088 248.615 144.121 242.887 142.911 241.079C136.191 231.049 125.192 228.156 114.564 234.004L113.822 233.453C111.557 233.996 109.796 236.139 108.354 237.836L108.305 238.156C108.505 238.349 108.82 238.627 108.978 238.836C108.064 239.69 108.422 239.591 107.342 239.812C105.466 239.26 103.426 237.742 101.406 236.958C86.6838 231.245 70.6946 236.892 62.5222 250.332C61.583 251.877 60.4341 256.575 58.8587 256.414C42.5317 254.753 40.1559 277.992 56.7393 279.123C57.3618 279.166 60.6819 278.197 61.469 278.503C70.0028 295.86 89.877 302.832 106.8 292.964C108.337 292.067 110.542 289.598 112.544 289.521C114.535 290.438 116.34 292.088 118.159 293.003C127.128 297.512 140.872 296.107 147.101 287.622C149.961 283.726 149.835 285.849 153.667 284.856C162.222 282.638 165.733 277.438 168.194 269.383L168.926 269.537C166.326 280.403 161.26 285.205 150.22 287.445C149.862 288.154 149.477 288.906 149.031 289.562C145.517 294.694 140.141 298.253 134.045 299.484C125.938 301.04 119.237 300.031 112.477 295.499C111.232 296.244 109.997 297.156 108.739 297.955C92.1444 308.503 67.448 301.152 59.1602 282.877C58.5043 282.933 57.8465 282.961 57.1883 282.963C53.0173 283.011 49.5999 281.718 46.6183 278.759C43.8382 276.025 42.2803 272.283 42.2984 268.384C42.3458 259.004 50.2882 254.401 58.8821 254.629C59.1318 253.999 59.3884 253.372 59.6516 252.747C66.5435 236.048 87.2371 227.727 103.939 234.159C104.868 234.517 105.789 234.901 106.706 235.288Z"/><path fill="#347DCF" d="M64.5071 156.363C73.0147 155.513 80.5952 161.734 81.424 170.247C82.2528 178.759 76.0148 186.327 67.5032 187.135C59.0207 187.941 51.4866 181.727 50.6607 173.244C49.8347 164.761 56.0286 157.209 64.5071 156.363Z"/><path d="M511.813 97.1598C537.963 100.663 546.169 133.12 525.656 148.907C516.011 156.33 499.431 157.142 490.359 148.487C484.165 152.82 477.46 154.599 469.95 155.093C466.925 157.582 465.035 159.749 461.256 161.087C453.126 163.964 443.931 162.001 438.312 155.183C436.976 153.576 435.909 151.763 435.153 149.815C418.832 152.811 406.151 141.354 409.336 124.846C409.905 125.019 410.247 125.132 410.809 125.358C407.299 140.361 422.678 152.973 436.484 146.8C440.459 155.785 450.129 161.454 459.628 156.881C463.121 155.2 465.242 153.021 467.849 150.267C477.503 150.045 482.655 147.566 490.577 142.229C494.095 145.094 496.911 146.996 501.355 148.287C507.721 150.147 514.566 149.378 520.36 146.153C539.886 135.041 537.828 107.007 516.815 99.1249C514.846 98.3865 512.41 98.2095 510.308 97.6525L511.813 97.1598Z"/><path d="M425.691 28.5391C428.519 29.3713 430.676 33.3888 432.88 36.0277C443.006 36.2569 446.13 32.8832 438.728 44.8812C439.01 48.2697 441.525 52.0861 440.97 54.4572C438.81 56.8142 433.745 53.2849 430.381 53.962C428.431 55.5894 424.431 59.694 421.943 58.5879C421.232 57.6291 420.969 53.42 421.173 52.255C422.225 46.2762 413.355 46.9772 413.339 42.4178C414.56 39.8394 420.427 39.9545 422.167 37.4846C423.896 35.0292 423.126 30.2044 425.691 28.5391Z"/><path d="M434.293 108.599C438.993 91.1169 456.44 81.9968 473.801 84.6387C483.259 85.9913 491.76 91.1326 497.352 98.8813C499.7 98.0304 501.284 97.5439 503.769 97.3233L504.202 98.0345C501.09 98.4541 500.09 98.7848 497.21 100.027C495.102 98.176 493.297 96.1192 491.153 94.2969C473.537 79.3273 441.5 90.3443 437.072 113.211C427.033 109.991 417.419 111.759 412.187 121.853C411.699 122.794 411.461 123.839 410.989 124.829C410.711 124.249 410.863 123.441 410.855 122.651C410.526 122.39 410.254 122.152 409.941 121.873C414.233 111.687 423.486 106.855 434.293 108.599Z"/><path d="M161.227 145.944L161.86 146.127C163.164 147.843 162.627 150.752 163.698 152.201C164.726 153.594 168.539 154.073 169.305 155.918C168.624 157.876 165.123 158.764 164.051 160.161C163.245 161.212 163.908 165.195 162.436 166.391C160.666 166.362 159.151 164.36 157.764 163.024C151.841 161.804 147.575 167.43 152.332 156.368C151.353 154.724 149.675 152.609 150.366 150.732C151.936 149.69 154.257 150.381 156.224 150.684C158.048 149.128 158.994 147.569 161.227 145.944Z"/><path d="M527.696 268C529.6 269.442 528.472 272.986 529.592 274.216C531.035 275.802 534.057 276.38 536.027 278.145C531.144 282.851 529.338 279.367 529.297 288.139L528.92 288.461C527.011 288.198 525.243 286.34 523.701 285.121C521.364 284.006 518.074 285.953 516.524 284.848C516.263 283.038 517.881 280.41 518.747 278.711C517.187 276.013 516.509 275.32 515.573 272.269C517.796 272.168 519.97 272.357 522.188 272.502C523.735 271.192 525.991 268.703 527.696 268ZM526.287 275.425L526.659 275.263C526.542 273.999 526.432 273.764 525.95 272.579L525.266 272.33C524.322 273.186 524.325 272.895 524.276 273.82C524.917 274.559 525.49 274.884 526.287 275.425Z"/><path fill="#09080D" fill-opacity="0.98823529" d="M525.266 272.33L525.95 272.579C526.432 273.764 526.542 273.999 526.659 275.263L526.287 275.425C525.49 274.884 524.917 274.559 524.276 273.82C524.325 272.895 524.322 273.186 525.266 272.33Z"/><path d="M31.6078 87.232C33.3164 87.4522 36.1271 90.0608 37.6042 91.2315C39.2905 90.843 42.5147 89.8123 43.9511 90.5495C44.5143 91.9944 42.8649 95.1275 42.2568 97.0096C43.1323 98.3708 45.299 101.242 45.0075 102.716C43.9483 103.654 39.8234 102.93 38.1363 103.06C36.8951 105.07 35.3651 106.637 33.6182 108.2C32.457 106.152 31.9962 104.247 31.4569 101.963C30.517 101.079 26.9505 99.4358 25.5593 98.6789C25.0011 96.995 29.1147 95.5351 30.1765 93.9704C31.1924 92.4734 31.2277 89.3133 31.6078 87.232Z"/><path d="M360.634 64.2867C363.796 67.1482 360.858 67.8153 367.139 69.8123L367.323 70.2443C366.863 71.4095 365.677 72.3853 364.748 73.307C364.761 74.7745 364.908 76.5511 364.993 78.0415C363.341 77.5499 362.323 76.9331 360.803 76.1103C359.792 76.2789 357.208 77.6041 356.055 78.1108C356.176 76.4713 356.594 74.6853 356.928 73.0589C355.967 72.167 354.198 71.0194 354.477 69.6634C355.29 68.9324 356.99 68.6417 358.354 68.1128C359.044 66.8074 359.857 65.5439 360.634 64.2867Z"/><path d="M108.978 238.836C108.82 238.627 108.505 238.349 108.305 238.156L108.354 237.836C109.796 236.139 111.557 233.996 113.822 233.453L114.564 234.004C112.735 234.819 110.368 237.28 108.978 238.836Z"/><path d="M503.769 97.3233C506.112 96.8105 509.47 96.6546 511.813 97.1598L510.308 97.6525C508.194 97.5542 506.25 97.4055 504.202 98.0345L503.769 97.3233Z"/><path d="M168.145 263.732L168.799 263.705C168.958 265.822 169.127 267.405 168.926 269.537L168.194 269.383C168.276 267.33 168.238 265.79 168.145 263.732Z"/><path d="M409.941 121.873C410.254 122.152 410.526 122.39 410.855 122.651C410.863 123.441 410.711 124.249 410.989 124.829L410.809 125.358C410.247 125.132 409.905 125.019 409.336 124.846C409.466 123.518 409.579 123.122 409.941 121.873Z"/></svg>